<svg xmlns="http://www.w3.org/2000/svg" xmlns:xlink="http://www.w3.org/1999/xlink" width="2560" zoomAndPan="magnify" viewBox="0 0 1920 1919.999921" height="2560" preserveAspectRatio="xMidYMid meet" version="1.0"><defs><clipPath id="58f40846e7"><path d="M 257 252.054688 L 1236 252.054688 L 1236 1298 L 257 1298 Z M 257 252.054688 " clip-rule="nonzero"/></clipPath></defs><rect x="-192" width="2304" fill="#ffffff" y="-191.999992" height="2303.999905" fill-opacity="1"/><rect x="-192" width="2304" fill="#e3e3e3" y="-191.999992" height="2303.999905" fill-opacity="1"/><g clip-path="url(#58f40846e7)"><path fill="#89ad98" d="M 746.195312 1297.035156 C 1015.878906 1297.035156 1235.246094 1010.808594 1235.246094 741.148438 C 1235.246094 471.488281 1015.878906 252.054688 746.195312 252.054688 C 476.511719 252.054688 257.125 471.488281 257.125 741.148438 C 257.171875 1010.785156 476.535156 1297.035156 746.195312 1297.035156 Z M 746.195312 1297.035156 " fill-opacity="1" fill-rule="nonzero"/></g><path fill="#89ad98" d="M 1113.339844 1302.050781 C 1018.476562 1374.328125 900.132812 1417.328125 771.9375 1417.328125 L 720.453125 1417.328125 C 592.238281 1417.328125 473.871094 1374.304688 379.03125 1302.050781 C 69.277344 1352.121094 -167.253906 1620.597656 -167.253906 1944.449219 C -167.253906 2122.359375 241.703125 2266.625 746.195312 2266.625 C 1250.667969 2266.625 1659.648438 2122.359375 1659.648438 1944.449219 C 1659.648438 1620.597656 1423.09375 1352.121094 1113.339844 1302.050781 Z M 1113.339844 1302.050781 " fill-opacity="1" fill-rule="nonzero"/></svg>